<svg xmlns="http://www.w3.org/2000/svg" viewBox="0 0 100 100" width="100" height="100" role="img" aria-label="dây leo · thẳng lên trên">
  <defs><clipPath id="cell"><rect x="7" y="7" width="86" height="86" rx="21.5"></rect></clipPath></defs>
  <rect x="3.5" y="3.5" width="93" height="93" rx="25" fill="#F4E9D8" stroke="#E0CDAE" stroke-width="7"></rect>
  <g clip-path="url(#cell)">
    <ellipse cx="50" cy="19" rx="38" ry="15" fill="#FFFFFF" fill-opacity="0.45"></ellipse>
    <path d="M 50 9 L 50 91" fill="none" stroke="#5FB16E" stroke-width="8" stroke-linecap="round"></path>
    <path d="M 50 9 L 50 91" fill="none" stroke="#7FCF8E" stroke-width="3" stroke-linecap="round" stroke-opacity="0.7"></path>
    <g transform="translate(62 42) rotate(22) scale(1)" stroke="#4FA95F" stroke-width="1.4" stroke-linejoin="round"><path d="M0 0 C-1 -7 4 -12 11 -13 C12 -6 7 -1 0 0 Z" fill="#7FCF8E"></path><path d="M1 -2 C3 -5 6 -8 9 -10" fill="none" stroke-width="1.1"></path></g>
    <g transform="translate(38 60) rotate(150) scale(0.8)" stroke="#4FA95F" stroke-width="1.4" stroke-linejoin="round"><path d="M0 0 C-1 -7 4 -12 11 -13 C12 -6 7 -1 0 0 Z" fill="#7FCF8E"></path><path d="M1 -2 C3 -5 6 -8 9 -10" fill="none" stroke-width="1.1"></path></g>
  </g>
</svg>