<svg xmlns="http://www.w3.org/2000/svg" viewBox="0 0 100 100" width="100" height="100" role="img" aria-label="gốc thân · trái + phải">
  <defs><clipPath id="cell"><rect x="7" y="7" width="86" height="86" rx="21.5"></rect></clipPath></defs>
  <rect x="3.5" y="3.5" width="93" height="93" rx="25" fill="#F4E9D8" stroke="#E0CDAE" stroke-width="7"></rect>
  <g clip-path="url(#cell)">
    <ellipse cx="50" cy="19" rx="38" ry="15" fill="#FFFFFF" fill-opacity="0.45"></ellipse>
    <path d="M50 93 C42 88 33 90 27 95" fill="none" stroke="#9A7A46" stroke-width="5" stroke-linecap="round"></path>
    <path d="M50 93 C58 88 67 90 73 95" fill="none" stroke="#9A7A46" stroke-width="5" stroke-linecap="round"></path>
    <path d="M50 95 L50 50" fill="none" stroke="#8A6A3C" stroke-width="12" stroke-linecap="round"></path>
    <path d="M50 95 L50 50" fill="none" stroke="#A6844C" stroke-width="4.5" stroke-linecap="round" stroke-opacity="0.8"></path>
    <ellipse cx="50" cy="72" rx="3.2" ry="4.4" fill="none" stroke="#6E5228" stroke-width="1.8"></ellipse>
    <path d="M50 50 C40 49 30 51 9 50" fill="none" stroke="#5FB16E" stroke-width="6" stroke-linecap="round"></path>
    <path d="M50 50 C40 49 30 51 9 50" fill="none" stroke="#7FCF8E" stroke-width="2.4" stroke-linecap="round" stroke-opacity="0.7"></path>
    <g transform="translate(32 46) rotate(-60) scale(0.8)" stroke="#4FA95F" stroke-width="1.4" stroke-linejoin="round"><path d="M0 0 C-1 -7 4 -12 11 -13 C12 -6 7 -1 0 0 Z" fill="#7FCF8E"></path><path d="M1 -2 C3 -5 6 -8 9 -10" fill="none" stroke-width="1.1"></path></g>
    <path d="M50 50 C60 49 70 51 91 50" fill="none" stroke="#5FB16E" stroke-width="6" stroke-linecap="round"></path>
    <path d="M50 50 C60 49 70 51 91 50" fill="none" stroke="#7FCF8E" stroke-width="2.4" stroke-linecap="round" stroke-opacity="0.7"></path>
    <g transform="translate(68 46) rotate(30) scale(0.8)" stroke="#4FA95F" stroke-width="1.4" stroke-linejoin="round"><path d="M0 0 C-1 -7 4 -12 11 -13 C12 -6 7 -1 0 0 Z" fill="#7FCF8E"></path><path d="M1 -2 C3 -5 6 -8 9 -10" fill="none" stroke-width="1.1"></path></g>
    <circle cx="50" cy="50" r="5" fill="#5FB16E"></circle>
  </g>
</svg>