<svg xmlns="http://www.w3.org/2000/svg" viewBox="0 0 100 100" width="100" height="100" role="img" aria-label="rác · lá khô + củi khô">
  <defs><clipPath id="cell"><rect x="7" y="7" width="86" height="86" rx="21.5"></rect></clipPath></defs>
  <rect x="3.5" y="3.5" width="93" height="93" rx="25" fill="#EFE1CA" stroke="#E0CDAE" stroke-width="7"></rect>
  <g clip-path="url(#cell)">
    <ellipse cx="50" cy="19" rx="38" ry="15" fill="#FFFFFF" fill-opacity="0.40"></ellipse>
    
    <path d="M22 68 C38 62 54 60 74 54" fill="none" stroke="#8A6A3C" stroke-width="4.5" stroke-linecap="round"></path>
    <path d="M46 63 l7 -7 M58 60 l5 4" fill="none" stroke="#8A6A3C" stroke-width="2.6" stroke-linecap="round"></path>
    <path d="M28 78 C42 74 56 76 72 70" fill="none" stroke="#A2814A" stroke-width="3.6" stroke-linecap="round"></path>
    <path d="M50 74 l-4 6" fill="none" stroke="#A2814A" stroke-width="2.2" stroke-linecap="round"></path>
    
    <g transform="translate(34 52) rotate(-28) scale(1.05)" stroke="#8A6A3C" stroke-width="1.5" stroke-linejoin="round"><path d="M0 0 C-2 -7 3 -13 11 -13 C13 -5 7 1 0 0 Z" fill="#C7A86E"></path><path d="M1 -1 C4 -4 7 -7 9 -10" fill="none" stroke-width="1.1"></path></g>
    <g transform="translate(62 44) rotate(22) scale(1)" stroke="#8A6A3C" stroke-width="1.5" stroke-linejoin="round"><path d="M0 0 C-2 -7 3 -13 11 -13 C13 -5 7 1 0 0 Z" fill="#B79A6E"></path><path d="M1 -1 C4 -4 7 -7 9 -10" fill="none" stroke-width="1.1"></path></g>
    <g transform="translate(50 58) rotate(150) scale(0.95)" stroke="#8A6A3C" stroke-width="1.5" stroke-linejoin="round"><path d="M0 0 C-2 -7 3 -13 11 -13 C13 -5 7 1 0 0 Z" fill="#CBB07A"></path><path d="M1 -1 C4 -4 7 -7 9 -10" fill="none" stroke-width="1.1"></path></g>
    <g transform="translate(72 62) rotate(60) scale(0.85)" stroke="#8A6A3C" stroke-width="1.5" stroke-linejoin="round"><path d="M0 0 C-2 -7 3 -13 11 -13 C13 -5 7 1 0 0 Z" fill="#B79A6E"></path><path d="M1 -1 C4 -4 7 -7 9 -10" fill="none" stroke-width="1.1"></path></g>
    
    <circle cx="40" cy="42" r="1.8" fill="#8A6A3C"></circle>
    <circle cx="66" cy="70" r="1.6" fill="#A2814A"></circle>
    <circle cx="30" cy="60" r="1.4" fill="#8A6A3C"></circle>
  </g>
</svg>