<svg xmlns="http://www.w3.org/2000/svg" viewBox="0 0 100 100" width="100" height="100" role="img" aria-label="Gravity Jelly block — water (nước)">
  <defs>
    <clipPath id="cell"><rect x="7" y="7" width="86" height="86" rx="21.5"></rect></clipPath>
  </defs>
  <rect x="3.5" y="3.5" width="93" height="93" rx="25" fill="#8FD9E6" stroke="#4FBBCB" stroke-width="7"></rect>
  <g clip-path="url(#cell)">
    <ellipse cx="50" cy="19" rx="38" ry="15" fill="#CFF3F8" fill-opacity="0.9"></ellipse>
    
    <path d="M13 41 C24 35 33 45 45 41 C57 37 67 45 88 39" fill="none" stroke="#EAFBFD" stroke-width="3.2" stroke-linecap="round" stroke-opacity="0.85"></path>
    <path d="M20 53 C30 49 39 56 51 52" fill="none" stroke="#EAFBFD" stroke-width="2.4" stroke-linecap="round" stroke-opacity="0.6"></path>
    
    <path d="M50 55 c6.5 8.5 9.5 13 9.5 16.8 a9.5 9.5 0 0 1 -19 0 C40 68 43.5 63.5 50 55 z" fill="#B9ECF2" stroke="#4FBBCB" stroke-width="2.2" stroke-linejoin="round"></path>
    <path d="M45.5 70 a3.8 3.8 0 0 0 3.2 3.4" fill="none" stroke="#EAFBFD" stroke-width="2" stroke-linecap="round"></path>
    
    <circle cx="29" cy="70" r="4.2" fill="#FFFFFF" fill-opacity="0.55"></circle>
    <circle cx="73" cy="64" r="3.2" fill="#FFFFFF" fill-opacity="0.5"></circle>
    <circle cx="66" cy="78" r="2.2" fill="#FFFFFF" fill-opacity="0.45"></circle>
  </g>
</svg>