<svg xmlns="http://www.w3.org/2000/svg" viewBox="0 0 100 100" width="100" height="100" role="img" aria-label="Gravity Jelly block — water buried/locked (nước · lớp khóa)">
  <defs>
    <clipPath id="cell"><rect x="7" y="7" width="86" height="86" rx="21.5"></rect></clipPath>
  </defs>
  <rect x="3.5" y="3.5" width="93" height="93" rx="25" fill="#8FD9E6" stroke="#4FBBCB" stroke-width="7"></rect>
  <g clip-path="url(#cell)">
    <ellipse cx="50" cy="19" rx="38" ry="15" fill="#CFF3F8" fill-opacity="0.9"></ellipse>
    <path d="M13 41 C24 35 33 45 45 41 C57 37 67 45 88 39" fill="none" stroke="#EAFBFD" stroke-width="3.2" stroke-linecap="round" stroke-opacity="0.85"></path>
    <path d="M20 53 C30 49 39 56 51 52" fill="none" stroke="#EAFBFD" stroke-width="2.4" stroke-linecap="round" stroke-opacity="0.6"></path>
    <path d="M46 52 c6 8 9 12 9 15.6 a9 9 0 0 1 -18 0 C37 64 40 60 46 52 z" fill="#B9ECF2" stroke="#4FBBCB" stroke-width="2.2" stroke-linejoin="round"></path>
    <circle cx="27" cy="66" r="3.6" fill="#FFFFFF" fill-opacity="0.5"></circle>
    <circle cx="70" cy="58" r="2.8" fill="#FFFFFF" fill-opacity="0.45"></circle>
  </g>
  
  <circle cx="75" cy="75" r="15" fill="#C9BCA8" stroke="#A89A82" stroke-width="3"></circle>
  <g fill="none" stroke="#6B5B45" stroke-width="3" stroke-linecap="round" stroke-linejoin="round">
    <rect x="68.5" y="74" width="13" height="9.5" rx="2.4" fill="#DBD0BF" stroke-width="2.6"></rect>
    <path d="M71 74 v-2.6 a4 4 0 0 1 8 0 V74"></path>
  </g>
</svg>