<svg xmlns="http://www.w3.org/2000/svg" viewBox="0 0 100 100" width="100" height="100" role="img" aria-label="Gravity Jelly — nguồn nước đã bị phá (water source, broken)">
  <defs>
    <clipPath id="cell"><rect x="7" y="7" width="86" height="86" rx="21.5"></rect></clipPath>
  </defs>
  <rect x="3.5" y="3.5" width="93" height="93" rx="25" fill="#C9BCA8" stroke="#A89A82" stroke-width="7"></rect>
  <g clip-path="url(#cell)">
    <ellipse cx="50" cy="18" rx="38" ry="14" fill="#DBD0BF" fill-opacity="0.7"></ellipse>
    
    <circle cx="50" cy="52" r="15" fill="#9C8E77"></circle>
    <circle cx="50" cy="52" r="15" fill="none" stroke="#8A7E68" stroke-width="2" stroke-opacity="0.6"></circle>
    
    <g stroke="#8A7E68" stroke-width="2.4" stroke-linecap="round" stroke-opacity="0.75" fill="none">
      <path d="M50 52 L28 30 M50 52 L74 34 M50 52 L40 82 M50 52 L72 74"></path>
    </g>
  </g>
  
  <circle cx="76" cy="24" r="16" fill="#EDE5D8" stroke="#D9CFBE" stroke-width="1.5"></circle>
  <g transform="translate(64 12)">
    <path d="M12 3.4c4.2 5.2 6.3 8.3 6.3 11.3a6.3 6.3 0 1 1-12.6 0c0-3 2.1-6.1 6.3-11.3z" fill="#D9CFBE" stroke="#A89A82" stroke-width="1.8" stroke-linejoin="round"></path>
    <path d="M12 6 L10.6 12.4 L13.4 12.4 L11.6 18.6" fill="none" stroke="#8A7E68" stroke-width="1.7" stroke-linecap="round" stroke-linejoin="round"></path>
  </g>
</svg>