<svg xmlns="http://www.w3.org/2000/svg" viewBox="0 0 100 100" width="100" height="100" role="img" aria-label="dây leo bị cắt · đếm ngược 1 lượt">
  <defs><clipPath id="cell"><rect x="7" y="7" width="86" height="86" rx="21.5"></rect></clipPath></defs>
  <rect x="3.5" y="3.5" width="93" height="93" rx="25" fill="#F4E9D8" stroke="#E0CDAE" stroke-width="7"></rect>
  <g clip-path="url(#cell)">
    <ellipse cx="50" cy="19" rx="38" ry="15" fill="#FFFFFF" fill-opacity="0.40"></ellipse>
    
    <path d="M50 92 C50 74 46 66 40 60" fill="none" stroke="#7BA85C" stroke-width="8" stroke-linecap="round"></path>
    <path d="M50 92 C50 74 46 66 40 60" fill="none" stroke="#A9C98A" stroke-width="3" stroke-linecap="round" stroke-opacity="0.6"></path>
    <path d="M40 60 C35 55 32 52 31 47" fill="none" stroke="#9A7A46" stroke-width="7" stroke-linecap="round"></path>
    
    <path d="M31 47 l-4 -4 M31 47 l1 -6 M31 47 l5 -3" fill="none" stroke="#8A6A3C" stroke-width="2" stroke-linecap="round"></path>
    
    <g transform="translate(55 70) rotate(40) scale(0.9)" stroke="#5FA04A" stroke-width="1.5" stroke-linejoin="round"><path d="M0 0 C-2 -7 3 -13 11 -13 C13 -5 7 1 0 0 Z" fill="#8FBE6A"></path><path d="M1 -1 C4 -4 7 -7 9 -10" fill="none" stroke-width="1.1"></path></g>
    <g transform="translate(24 62) rotate(-150) scale(0.85)" stroke="#8A6A3C" stroke-width="1.5" stroke-linejoin="round"><path d="M0 0 C-2 -7 3 -13 11 -13 C13 -5 7 1 0 0 Z" fill="#C0A16A"></path><path d="M1 -1 C4 -4 7 -7 9 -10" fill="none" stroke-width="1.1"></path></g>
    
    <circle cx="74" cy="26" r="14" fill="#FFCA66" stroke="#E9A93F" stroke-width="3"></circle>
    <text x="74" y="32.5" text-anchor="middle" font-family="Fredoka, Nunito, sans-serif" font-weight="700" font-size="18" fill="#5B4636">1</text>
  </g>
</svg>