<svg xmlns="http://www.w3.org/2000/svg" viewBox="0 0 100 100" width="100" height="100" role="img" aria-label="Gravity Jelly — nguồn nước (water source, active)">
  <defs>
    <clipPath id="cell"><rect x="7" y="7" width="86" height="86" rx="21.5"></rect></clipPath>
  </defs>
  <rect x="3.5" y="3.5" width="93" height="93" rx="25" fill="#3FC3CE" stroke="#158A93" stroke-width="7"></rect>
  <g clip-path="url(#cell)">
    <ellipse cx="50" cy="18" rx="38" ry="14" fill="#CFF3F8" fill-opacity="0.85"></ellipse>
    
    <circle cx="50" cy="50" r="27" fill="none" stroke="#EAFBFD" stroke-width="3" stroke-opacity="0.5"></circle>
    <circle cx="50" cy="50" r="18" fill="#9FE4E7"></circle>
    <circle cx="50" cy="50" r="9.5" fill="#F1FCFC"></circle>
    
    <circle cx="33" cy="24" r="3.4" fill="#EAFBFD"></circle>
    <circle cx="64" cy="27" r="2.6" fill="#EAFBFD" fill-opacity="0.85"></circle>
    
    <path d="M50 68 L50 86 M43 79 L50 86 L57 79" fill="none" stroke="#FFFFFF" stroke-width="5" stroke-linecap="round" stroke-linejoin="round"></path>
  </g>
  
  <circle cx="76" cy="24" r="16" fill="#FFFFFF" stroke="#DFF4F6" stroke-width="1.5"></circle>
  <g transform="translate(64 12) scale(1)">
    <path d="M12 3.4c4.2 5.2 6.3 8.3 6.3 11.3a6.3 6.3 0 1 1-12.6 0c0-3 2.1-6.1 6.3-11.3z" fill="#5FD2D6" stroke="#158A93" stroke-width="1.8" stroke-linejoin="round"></path>
    <path d="M9.2 13.4a3.4 3.4 0 0 0 2.6 2.9" fill="none" stroke="#FFFFFF" stroke-width="1.6" stroke-linecap="round"></path>
  </g>
</svg>