<svg xmlns="http://www.w3.org/2000/svg" viewBox="0 0 100 100" width="100" height="100" role="img" aria-label="Gravity Jelly block — pink">
  <defs>
    <clipPath id="cell"><rect x="7" y="7" width="86" height="86" rx="21.5"></rect></clipPath>
  </defs>
  <rect x="3.5" y="3.5" width="93" height="93" rx="25" fill="#F7A9C0" stroke="#E576A0" stroke-width="7"></rect>
  <g clip-path="url(#cell)"><ellipse cx="50" cy="19" rx="38" ry="15" fill="#FBD0DF" fill-opacity="0.85"></ellipse></g>
  
    <circle cx="31" cy="52" r="13" fill="#FFFFFF" stroke="#4A3526" stroke-opacity="0.30" stroke-width="1.5"></circle>
    <circle cx="31" cy="52" r="6.75" fill="#4A3526"></circle>
    <circle cx="33.6" cy="49.4" r="2.3" fill="#FFFFFF" fill-opacity="0.9"></circle>
    <circle cx="69" cy="52" r="13" fill="#FFFFFF" stroke="#4A3526" stroke-opacity="0.30" stroke-width="1.5"></circle>
    <circle cx="69" cy="52" r="6.75" fill="#4A3526"></circle>
    <circle cx="71.6" cy="49.4" r="2.3" fill="#FFFFFF" fill-opacity="0.9"></circle>
    <g transform="translate(57 7) scale(1.5) rotate(-12 12 12)">
      <path d="M12 20.7l-1.5-1.4C5.4 14.6 2 11.5 2 7.8 2 5.1 4.1 3 6.8 3 8.3 3 9.8 3.8 12 6 14.2 3.8 15.7 3 17.2 3 19.9 3 22 5.1 22 7.8c0 3.7-3.4 6.8-8.5 11.5z" fill="#FBD0DF" stroke="#E576A0" stroke-linejoin="round" stroke-linecap="round" stroke-width="1.6"></path>
    </g>
</svg>