<svg xmlns="http://www.w3.org/2000/svg" viewBox="0 0 100 100" width="100" height="100" role="img" aria-label="Gravity Jelly block — rainbow (wild)">
  <defs>
    <clipPath id="rbcell"><rect x="7" y="7" width="86" height="86" rx="21.5"></rect></clipPath>
  </defs>
  
  <rect x="3.5" y="3.5" width="93" height="93" rx="25" fill="#FBE9F1" stroke="#C9A6E8" stroke-width="7"></rect>
  
  <g clip-path="url(#rbcell)">
    <g transform="rotate(-22 50 50)">
      <rect x="-30" y="-14" width="160" height="30" fill="#FFE3A3"></rect>
      <rect x="-30" y="16" width="160" height="23" fill="#A3E5D9"></rect>
      <rect x="-30" y="39" width="160" height="23" fill="#B3C7F7"></rect>
      <rect x="-30" y="62" width="160" height="23" fill="#F7A9C0"></rect>
      <rect x="-30" y="85" width="160" height="32" fill="#FFD9B0"></rect>
    </g>
    <ellipse cx="50" cy="18" rx="36" ry="14" fill="#FFFFFF" fill-opacity="0.6"></ellipse>
  </g>
  
  <rect x="10" y="10" width="80" height="80" rx="19" fill="none" stroke="#FFFFFF" stroke-width="2.4" stroke-opacity="0.45"></rect>
  
  <path d="M23 54 Q32 46 41 54" fill="none" stroke="#4A3526" stroke-width="4" stroke-linecap="round"></path>
  <path d="M59 54 Q68 46 77 54" fill="none" stroke="#4A3526" stroke-width="4" stroke-linecap="round"></path>
  
  <circle cx="24" cy="63" r="4" fill="#F7A9C0" fill-opacity="0.55"></circle>
  <circle cx="76" cy="63" r="4" fill="#F7A9C0" fill-opacity="0.55"></circle>
</svg>