<svg xmlns="http://www.w3.org/2000/svg" viewBox="0 -22 100 122" width="100" height="122" role="img" aria-label="Gravity Jelly block — rainbow (wild) cấp 2, có vương miện">
  <defs>
    <clipPath id="rb2cell"><rect x="7" y="7" width="86" height="86" rx="21.5"></rect></clipPath>
  </defs>

  
  <rect x="3.5" y="3.5" width="93" height="93" rx="25" fill="#FBE9F1" stroke="#C9A6E8" stroke-width="7"></rect>

  <g clip-path="url(#rb2cell)">
    <g transform="rotate(-22 50 50)">
      <rect x="-30" y="-14" width="160" height="30" fill="#FFE3A3"></rect>
      <rect x="-30" y="16" width="160" height="23" fill="#A3E5D9"></rect>
      <rect x="-30" y="39" width="160" height="23" fill="#B3C7F7"></rect>
      <rect x="-30" y="62" width="160" height="23" fill="#F7A9C0"></rect>
      <rect x="-30" y="85" width="160" height="32" fill="#FFD9B0"></rect>
    </g>
    <ellipse cx="50" cy="18" rx="36" ry="14" fill="#FFFFFF" fill-opacity="0.6"></ellipse>
  </g>

  <rect x="10" y="10" width="80" height="80" rx="19" fill="none" stroke="#FFFFFF" stroke-width="2.4" stroke-opacity="0.45"></rect>

  <path d="M23 54 Q32 46 41 54" fill="none" stroke="#4A3526" stroke-width="4" stroke-linecap="round"></path>
  <path d="M59 54 Q68 46 77 54" fill="none" stroke="#4A3526" stroke-width="4" stroke-linecap="round"></path>

  <circle cx="24" cy="63" r="4" fill="#F7A9C0" fill-opacity="0.55"></circle>
  <circle cx="76" cy="63" r="4" fill="#F7A9C0" fill-opacity="0.55"></circle>

  
  <g>
    <path d="M28 4 L28 -10 L40 -1 L50 -18 L60 -1 L72 -10 L72 4 Z" fill="#FFCA66" stroke="#E8B85C" stroke-width="3" stroke-linejoin="round" stroke-linecap="round"></path>
    <rect x="26" y="2" width="48" height="9" rx="4" fill="#FFD27A" stroke="#E8B85C" stroke-width="3"></rect>
    <path d="M30 -8 L40 -1 L50 -15 L60 -1 L70 -8" fill="none" stroke="#FFF1CE" stroke-width="2" stroke-linecap="round" stroke-linejoin="round" opacity="0.7"></path>
    <circle cx="28" cy="-9" r="2.6" fill="#F7A9C0" stroke="#E8B85C" stroke-width="1.4"></circle>
    <circle cx="50" cy="-17" r="3" fill="#F08A7E" stroke="#E8B85C" stroke-width="1.4"></circle>
    <circle cx="72" cy="-9" r="2.6" fill="#8FB6F2" stroke="#E8B85C" stroke-width="1.4"></circle>
    <circle cx="50" cy="6.5" r="2.2" fill="#F08A7E"></circle>
    <circle cx="38" cy="6.5" r="1.8" fill="#A3E5D9"></circle>
    <circle cx="62" cy="6.5" r="1.8" fill="#B3C7F7"></circle>
  </g>
</svg>