<svg xmlns="http://www.w3.org/2000/svg" viewBox="-26 -26 152 152" width="152" height="152" role="img" aria-label="Gravity Jelly super block — pink level 2">
  <defs>
    <clipPath id="s2pink"><rect x="7" y="7" width="86" height="86" rx="21.5"></rect></clipPath>
    <radialGradient id="glow_s2pink" cx="50%" cy="50%" r="50%"><stop offset="0%" stop-color="#FFFFFF" stop-opacity="0.95"></stop><stop offset="30%" stop-color="#FBD0DF" stop-opacity="0.6"></stop><stop offset="64%" stop-color="#E576A0" stop-opacity="0.32"></stop><stop offset="100%" stop-color="#E576A0" stop-opacity="0"></stop></radialGradient>
    <filter id="soft_s2pink" x="-80%" y="-80%" width="260%" height="260%"><feGaussianBlur stdDeviation="4"></feGaussianBlur></filter>
    <filter id="mid_s2pink" x="-120%" y="-120%" width="340%" height="340%"><feGaussianBlur stdDeviation="3"></feGaussianBlur></filter>
  </defs>
  <circle cx="50" cy="50" r="72" fill="url(#glow_s2pink)"></circle>
  <rect x="0" y="0" width="100" height="100" rx="28" fill="none" stroke="#FFCA66" stroke-width="9" stroke-linecap="round" stroke-dasharray="87.98 263.95" stroke-dashoffset="0.00" stroke-opacity="0.45" filter="url(#soft_s2pink)"></rect>
  <rect x="0" y="0" width="100" height="100" rx="28" fill="none" stroke="#5FC3B2" stroke-width="9" stroke-linecap="round" stroke-dasharray="87.98 263.95" stroke-dashoffset="-87.98" stroke-opacity="0.45" filter="url(#soft_s2pink)"></rect>
  <rect x="0" y="0" width="100" height="100" rx="28" fill="none" stroke="#E576A0" stroke-width="9" stroke-linecap="round" stroke-dasharray="87.98 263.95" stroke-dashoffset="-175.96" stroke-opacity="0.45" filter="url(#soft_s2pink)"></rect>
  <rect x="0" y="0" width="100" height="100" rx="28" fill="none" stroke="#8FB6F2" stroke-width="9" stroke-linecap="round" stroke-dasharray="87.98 263.95" stroke-dashoffset="-263.95" stroke-opacity="0.45" filter="url(#soft_s2pink)"></rect>
  <rect x="0" y="0" width="100" height="100" rx="28" fill="none" stroke="#FFCA66" stroke-width="6" stroke-linecap="round" stroke-dasharray="87.98 263.95" stroke-dashoffset="0.00" stroke-opacity="0.98"></rect>
  <rect x="0" y="0" width="100" height="100" rx="28" fill="none" stroke="#5FC3B2" stroke-width="6" stroke-linecap="round" stroke-dasharray="87.98 263.95" stroke-dashoffset="-87.98" stroke-opacity="0.98"></rect>
  <rect x="0" y="0" width="100" height="100" rx="28" fill="none" stroke="#E576A0" stroke-width="6" stroke-linecap="round" stroke-dasharray="87.98 263.95" stroke-dashoffset="-175.96" stroke-opacity="0.98"></rect>
  <rect x="0" y="0" width="100" height="100" rx="28" fill="none" stroke="#8FB6F2" stroke-width="6" stroke-linecap="round" stroke-dasharray="87.98 263.95" stroke-dashoffset="-263.95" stroke-opacity="0.98"></rect>
  <g transform="translate(85 -6) scale(0.92)"><circle r="9" fill="#FFCA66" opacity="0.3" filter="url(#mid_s2pink)"></circle><path d="M0,-7 C0.7,-2 2,-0.7 7,0 C2,0.7 0.7,2 0,7 C-0.7,2 -2,0.7 -7,0 C-2,-0.7 -0.7,-2 0,-7 Z" fill="#FFCA66"></path><circle r="1.8" fill="#FFFFFF"></circle></g>
  <g transform="translate(115.8 26.1) scale(0.6)"><circle r="9" fill="#5FC3B2" opacity="0.3" filter="url(#mid_s2pink)"></circle><path d="M0,-7 C0.7,-2 2,-0.7 7,0 C2,0.7 0.7,2 0,7 C-0.7,2 -2,0.7 -7,0 C-2,-0.7 -0.7,-2 0,-7 Z" fill="#5FC3B2"></path><circle r="1.8" fill="#FFFFFF"></circle></g>
  <g transform="translate(110.3 76.8) scale(0.8)"><circle r="9" fill="#8FB6F2" opacity="0.3" filter="url(#mid_s2pink)"></circle><path d="M0,-7 C0.7,-2 2,-0.7 7,0 C2,0.7 0.7,2 0,7 C-0.7,2 -2,0.7 -7,0 C-2,-0.7 -0.7,-2 0,-7 Z" fill="#8FB6F2"></path><circle r="1.8" fill="#FFFFFF"></circle></g>
  <g transform="translate(78.5 113.9) scale(0.62)"><circle r="9" fill="#A99CF6" opacity="0.3" filter="url(#mid_s2pink)"></circle><path d="M0,-7 C0.7,-2 2,-0.7 7,0 C2,0.7 0.7,2 0,7 C-0.7,2 -2,0.7 -7,0 C-2,-0.7 -0.7,-2 0,-7 Z" fill="#A99CF6"></path><circle r="1.8" fill="#FFFFFF"></circle></g>
  <g transform="translate(20.2 111.1) scale(0.9)"><circle r="9" fill="#F7A9C0" opacity="0.3" filter="url(#mid_s2pink)"></circle><path d="M0,-7 C0.7,-2 2,-0.7 7,0 C2,0.7 0.7,2 0,7 C-0.7,2 -2,0.7 -7,0 C-2,-0.7 -0.7,-2 0,-7 Z" fill="#F7A9C0"></path><circle r="1.8" fill="#FFFFFF"></circle></g>
  <g transform="translate(-14.9 76.2) scale(0.6)"><circle r="9" fill="#E576A0" opacity="0.3" filter="url(#mid_s2pink)"></circle><path d="M0,-7 C0.7,-2 2,-0.7 7,0 C2,0.7 0.7,2 0,7 C-0.7,2 -2,0.7 -7,0 C-2,-0.7 -0.7,-2 0,-7 Z" fill="#E576A0"></path><circle r="1.8" fill="#FFFFFF"></circle></g>
  <g transform="translate(-11.1 20.2) scale(0.78)"><circle r="9" fill="#FFE3A3" opacity="0.3" filter="url(#mid_s2pink)"></circle><path d="M0,-7 C0.7,-2 2,-0.7 7,0 C2,0.7 0.7,2 0,7 C-0.7,2 -2,0.7 -7,0 C-2,-0.7 -0.7,-2 0,-7 Z" fill="#FFE3A3"></path><circle r="1.8" fill="#FFFFFF"></circle></g>
  <g transform="translate(21.1 -9.3) scale(0.6)"><circle r="9" fill="#5FC3B2" opacity="0.3" filter="url(#mid_s2pink)"></circle><path d="M0,-7 C0.7,-2 2,-0.7 7,0 C2,0.7 0.7,2 0,7 C-0.7,2 -2,0.7 -7,0 C-2,-0.7 -0.7,-2 0,-7 Z" fill="#5FC3B2"></path><circle r="1.8" fill="#FFFFFF"></circle></g>
  <g transform="translate(88 -6.4) scale(0.9)"><circle r="9" fill="#FFCA66" opacity="0.3" filter="url(#mid_s2pink)"></circle><path d="M0,-7 C0.7,-2 2,-0.7 7,0 C2,0.7 0.7,2 0,7 C-0.7,2 -2,0.7 -7,0 C-2,-0.7 -0.7,-2 0,-7 Z" fill="#FFCA66"></path><circle r="1.8" fill="#FFFFFF"></circle></g>
  
  <rect x="3.5" y="3.5" width="93" height="93" rx="25" fill="#F7A9C0" stroke="#E576A0" stroke-width="7"></rect>
  <g clip-path="url(#s2pink)"><ellipse cx="50" cy="60" rx="42" ry="36" fill="#E576A0" fill-opacity="0.28"></ellipse><ellipse cx="50" cy="18" rx="38" ry="15" fill="#FBD0DF" fill-opacity="0.95"></ellipse></g>
  <rect x="10" y="10" width="80" height="80" rx="19" fill="none" stroke="#FBD0DF" stroke-width="2.8" stroke-opacity="0.95"></rect>
  <line x1="22" y1="42" x2="40" y2="46.5" stroke="#4A3526" stroke-opacity="0.55" stroke-width="3" stroke-linecap="round"></line>
  <line x1="78" y1="42" x2="60" y2="46.5" stroke="#4A3526" stroke-opacity="0.55" stroke-width="3" stroke-linecap="round"></line>
  <path d="M22 55 A11 9 0 0 0 44 55 Z" fill="#FFFFFF" stroke="#4A3526" stroke-opacity="0.22" stroke-width="1.5"></path>
  <path d="M56 55 A11 9 0 0 0 78 55 Z" fill="#FFFFFF" stroke="#4A3526" stroke-opacity="0.22" stroke-width="1.5"></path>
  <line x1="22" y1="55" x2="44" y2="55" stroke="#4A3526" stroke-opacity="0.4" stroke-width="2.4" stroke-linecap="round"></line>
  <line x1="56" y1="55" x2="78" y2="55" stroke="#4A3526" stroke-opacity="0.4" stroke-width="2.4" stroke-linecap="round"></line>
  <circle cx="34" cy="53" r="4.6" fill="#4A3526"></circle><circle cx="66" cy="53" r="4.6" fill="#4A3526"></circle>
  <circle cx="35.6" cy="51.6" r="1.5" fill="#FFFFFF" fill-opacity="0.9"></circle><circle cx="67.6" cy="51.6" r="1.5" fill="#FFFFFF" fill-opacity="0.9"></circle>
  <g transform="translate(50 2)">
    <rect x="-19.5" y="-1.5" width="39" height="9" rx="3" fill="#FFCA66" stroke="#E2A82E" stroke-width="1.6"></rect>
    <path d="M-19 6 L-18 -7 L-13.5 -1 L-9 -13 L-4.5 -1 L0 -19 L4.5 -1 L9 -13 L13.5 -1 L18 -7 L19 6 Z" fill="#FFCA66" stroke="#E2A82E" stroke-width="1.6" stroke-linejoin="round"></path>
    <path d="M-18.4 -3.4 L18.4 -3.4" stroke="#FFE3A3" stroke-width="1.6" stroke-linecap="round" stroke-opacity="0.85"></path>
    <circle cx="-18" cy="-7.5" r="2.1" fill="#FFCA66" stroke="#E2A82E" stroke-width="0.9"></circle>
    <circle cx="-9" cy="-13.6" r="2.1" fill="#E576A0" stroke="#E2A82E" stroke-width="0.9"></circle>
    <circle cx="9" cy="-13.6" r="2.1" fill="#E576A0" stroke="#E2A82E" stroke-width="0.9"></circle>
    <circle cx="18" cy="-7.5" r="2.1" fill="#FFCA66" stroke="#E2A82E" stroke-width="0.9"></circle>
    <circle cx="0" cy="-20" r="2.7" fill="#FFFFFF" stroke="#E2A82E" stroke-width="0.9"></circle>
    <circle cx="-12.5" cy="3" r="1.7" fill="#FFE3A3" stroke="#E2A82E" stroke-width="0.8"></circle>
    <circle cx="12.5" cy="3" r="1.7" fill="#FFE3A3" stroke="#E2A82E" stroke-width="0.8"></circle>
    <circle cx="0" cy="2.8" r="6.4" fill="#E576A0" stroke="#FFFFFF" stroke-width="1.5"></circle>
    <g transform="translate(-5.3 -2.5) scale(0.4)"><path d="M12 20.7l-1.5-1.4C5.4 14.6 2 11.5 2 7.8 2 5.1 4.1 3 6.8 3 8.3 3 9.8 3.8 12 6 14.2 3.8 15.7 3 17.2 3 19.9 3 22 5.1 22 7.8c0 3.7-3.4 6.8-8.5 11.5z" fill="#FFFFFF"></path></g></g>
</svg>